<?xml version="1.0" encoding="utf-8"?>
<!-- Generator: Adobe Illustrator 23.0.3, SVG Export Plug-In . SVG Version: 6.00 Build 0)  -->
<svg version="1.1" xmlns="http://www.w3.org/2000/svg" xmlns:xlink="http://www.w3.org/1999/xlink" x="0px" y="0px"
	 viewBox="0 0 57 18" style="enable-background:new 0 0 57 18;" xml:space="preserve">
<style type="text/css">
	.st0{fill:#FFFFFF;}
	.st1{fill:#FF4500;}
	.st2{fill:#7188D8;}
	.st3{display:none;}
	.st4{display:inline;fill:#7188D8;}
</style>
<g id="Layer_1">
	<g>
		<path class="st0" d="M54.6,16.5V7.7h1c0.6,0,1-0.4,1.1-0.9c0,0,0-0.1,0-0.1v0c0.1-0.5-0.3-1-0.9-1.1c0,0,0,0-0.1,0h-1.2V3.9
			c0-0.6-0.5-1.2-1.1-1.2c-0.7,0-1.2,0.5-1.3,1.1v1.8h-1c-0.6,0-1,0.4-1.1,0.9c0,0,0,0.1,0,0.1v0.1c-0.1,0.5,0.3,1,0.9,1.1
			c0,0,0,0,0.1,0h1.1v8.8c0,0.7,0.5,1.2,1.2,1.2l0,0c0.7,0,1.2-0.5,1.3-1.1C54.7,16.6,54.6,16.6,54.6,16.5z"/>
		<circle class="st1" cx="47.3" cy="3.4" r="2.1"/>
		<path class="st0" d="M48.4,7.8c0-0.7-0.5-1.2-1.2-1.2c-0.7,0-1.2,0.5-1.2,1.2l0,0v8.7c0,0.7,0.5,1.2,1.2,1.2
			c0.7,0,1.2-0.5,1.2-1.2V7.8z"/>
		<path class="st0" d="M30.8,1.2c0-0.7-0.5-1.2-1.2-1.2v0l0,0c-0.7,0-1.2,0.5-1.2,1.2v0v5.3c-0.8-0.8-1.9-1.2-3-1.2
			c-3.1,0-5.7,2.8-5.7,6.3s2.5,6.4,5.7,6.4c1.2,0,2.3-0.4,3.1-1.2c0.2,0.6,0.8,1,1.4,0.8c0,0,0,0,0,0c0.5-0.1,0.8-0.6,0.9-1V1.2z
			 M25.4,15.6c-1.8,0-3.3-1.8-3.3-4s1.5-4,3.3-4s3.3,1.8,3.3,4S27.3,15.6,25.4,15.6L25.4,15.6z"/>
		<path class="st0" d="M43.3,1.2c0-0.7-0.5-1.2-1.2-1.2l0,0c-0.7,0-1.2,0.5-1.2,1.2c0,0,0,0,0,0l0,0v5.3c-0.8-0.8-1.9-1.2-3-1.2
			c-3.1,0-5.7,2.8-5.7,6.3s2.5,6.4,5.6,6.4c1.2,0,2.3-0.4,3.1-1.2c0.2,0.6,0.8,1,1.4,0.8c0,0,0,0,0,0c0.5-0.1,0.8-0.6,0.8-1
			L43.3,1.2z M37.8,15.6c-1.8,0-3.3-1.8-3.3-4s1.5-4,3.3-4s3.3,1.8,3.3,4S39.7,15.6,37.8,15.6L37.8,15.6z"/>
		<path class="st0" d="M17.3,12.4c0.8,0.1,1.5-0.6,1.6-1.4v-0.1c0-0.3,0-0.6-0.1-0.9c-0.5-2.7-2.8-4.7-5.5-4.8
			c-3.1,0-5.7,2.8-5.7,6.3s2.5,6.4,5.7,6.4c1.7,0.1,3.3-0.6,4.4-1.8c0.5-0.5,0.4-1.3-0.1-1.7c0,0,0,0,0,0l-0.1-0.1
			c-0.5-0.3-1.2-0.2-1.6,0.2c-0.7,0.7-1.6,1.1-2.6,1.1c-1.7-0.1-3.1-1.5-3.2-3.2H17.3z M13.3,7.7c1.5,0.1,2.8,1.2,3.1,2.6h-6.2
			C10.5,8.9,11.7,7.8,13.3,7.7L13.3,7.7z"/>
		<path class="st0" d="M2.4,6.9V6.8C2.3,6.1,1.7,5.6,1.1,5.7C0.5,5.7,0.1,6.2,0,6.8v9.8c0,0.6,0.5,1.2,1.1,1.2
			c0.7,0,1.2-0.5,1.3-1.1c0,0,0-0.1,0-0.1v-5C2.4,11.1,2.4,5.3,2.4,6.9z"/>
	</g>
	<path class="st2" d="M51.2,5.6"/>
	<path class="st2" d="M6.1,16"/>
	<path class="st2" d="M5.8,17.1"/>
	<path class="st2" d="M20.3-6.1"/>
</g>
<g id="Layer_2" class="st3">
	<path class="st4" d="M2.4,11.5"/>
	<path class="st4" d="M10.3,5.7H0H10.3z"/>
	<path class="st4" d="M1.2,11.7h6.3H1.2z"/>
	<path class="st4" d="M1.2,17.8h9H1.2z"/>
	<polygon class="st4" points="7.4,11.7 7.4,17.8 7.4,5.7 	"/>
</g>
<g id="Layer_3">
	<path class="st0" d="M1.2,11.7l6-6L1.2,11.7z"/>
	<path class="st0" d="M1.2,11.7l6,6L1.2,11.7z"/>
	<path class="st0" d="M2.4,11.7l4.8-4.8c0,0,0.2-0.7-0.2-1.1C6.4,5.3,5.6,5.7,5.6,5.7L2.4,8.9L2.4,11.7z"/>
	<path class="st0" d="M2.4,11.7l4.9,4.9c0,0,0.3,0.6-0.1,1c-0.5,0.6-1.4,0.2-1.4,0.2l-3.3-3.3L2.4,11.7z"/>
	<polygon class="st0" points="2.2,9.6 2.6,9.6 2.6,11.4 2.3,11.8 2.3,9.6 	"/>
	<polygon class="st0" points="2.5,13.9 2.5,11.8 2.3,11.6 2.3,13.8 	"/>
	<rect x="2.2" y="8.9" class="st0" width="0.3" height="0.7"/>
</g>
</svg>
