<?xml version="1.0" encoding="utf-8"?>
<!-- Generator: Adobe Illustrator 23.0.3, SVG Export Plug-In . SVG Version: 6.00 Build 0)  -->
<svg version="1.1" id="Layer_1" xmlns="http://www.w3.org/2000/svg" xmlns:xlink="http://www.w3.org/1999/xlink" x="0px" y="0px"
	 viewBox="0 0 20 20" style="enable-background:new 0 0 20 20;" xml:space="preserve">
<style type="text/css">
	.st0{fill:#7188D8;}
	.st1{fill:#FFFFFF;}
</style>
<g>
	<circle class="st0" cx="10" cy="10" r="10"/>
	<path class="st1" d="M16.67,10c0.04-0.17,0.31-1.23-0.19-1.65C16.04,7.98,15.04,8.16,14.2,9c-0.42-0.28-1.03-0.64-1.84-0.89
		c-0.8-0.26-1.51-0.33-2.01-0.34L11,4.65l2.14,0.45c0.06,0.55,0.55,0.95,1.1,0.89c0.55-0.06,0.95-0.55,0.89-1.1S14.58,3.94,14.03,4
		c-0.32,0.03-0.6,0.22-0.76,0.49L10.82,4c-0.17-0.04-0.33,0.07-0.37,0.24c0,0,0,0,0,0L9.71,7.71c-1.39,0.02-2.75,0.45-3.9,1.23
		C4.94,8.11,3.83,7.99,3.35,8.42c-0.77,0.67,0.29,2.49,0.46,2.65c0.13,0.12,0.28,0.21,0.28,0.21c0.04,0.02,0.07,0.04,0.11,0.06
		c-0.01,0.15-0.01,0.29,0,0.44c0,2.24,2.61,4.06,5.83,4.06s5.83-1.82,5.83-4.06c0.01-0.15,0.01-0.29,0-0.44
		C16.07,11.14,16.49,10.69,16.67,10z M6.67,11c0-0.55,0.45-1,1-1s1,0.45,1,1s-0.45,1-1,1S6.67,11.55,6.67,11z M12.48,13.75
		c-0.71,0.53-1.58,0.81-2.47,0.77c-0.89,0.04-1.76-0.24-2.47-0.77c-0.09-0.12-0.08-0.29,0.04-0.38c0.1-0.08,0.24-0.08,0.34,0
		C8.52,13.81,9.26,14.03,10,14c0.75,0.04,1.48-0.17,2.09-0.61c0.11-0.11,0.29-0.11,0.39,0.01s0.11,0.29-0.01,0.39l0,0V13.75z
		 M12.3,12.04c-0.55,0-1-0.45-1-1s0.45-1,1-1s1,0.45,1,1c0.02,0.55-0.41,1.02-0.96,1.04c-0.02,0-0.03,0-0.05,0L12.3,12.04z"/>
</g>
</svg>
